HIERARCHY
ROOT SpineBase
{
  OFFSET 0.000000 0.000000 0.000000
  CHANNELS 6 Xposition Yposition Zposition Zrotation Xrotation Yrotation
  JOINT SpineMid
  {
    OFFSET 0.000000 28.399671 0.000000
    CHANNELS 3 Zrotation Xrotation Yrotation
    JOINT SpineShoulder
    {
      OFFSET -0.032885 21.029335 -0.719000
      CHANNELS 3 Zrotation Xrotation Yrotation
      JOINT Neck
      {
        OFFSET -0.075928 6.977934 -0.552808
        CHANNELS 3 Zrotation Xrotation Yrotation
        JOINT Head
        {
          OFFSET -2.430470 11.453515 -0.081480
          CHANNELS 3 Zrotation Xrotation Yrotation
          End Site
          {
            OFFSET 0 0 0
          }
        }
      }
      JOINT ShoulderLeft
      {
        OFFSET -15.959708 -2.714263 5.110094
        CHANNELS 3 Zrotation Xrotation Yrotation
        JOINT ElbowLeft
        {
          OFFSET -3.469064 -26.014004 2.385742
          CHANNELS 3 Zrotation Xrotation Yrotation
          JOINT WristLeft
          {
            OFFSET -2.886859 -20.373358 -3.573759
            CHANNELS 3 Zrotation Xrotation Yrotation
            JOINT HandLeft
            {
              OFFSET 0.623506 -7.125523 -2.536251
              CHANNELS 3 Zrotation Xrotation Yrotation
              JOINT HandTipLeft
              {
                OFFSET 0.395272 -6.488812 -0.959652
                CHANNELS 3 Zrotation Xrotation Yrotation
                End Site
                {
                  OFFSET 0 0 0
                }
              }
              JOINT ThumbLeft
              {
                OFFSET 3.481554 -0.172506 -2.364499
                CHANNELS 3 Zrotation Xrotation Yrotation
                End Site
                {
                  OFFSET 0 0 0
                }
              }
            }
          }
        }
      }
      JOINT ShoulderRight
      {
        OFFSET 15.049775 -1.709135 -5.154910
        CHANNELS 3 Zrotation Xrotation Yrotation
        JOINT ElbowRight
        {
          OFFSET 7.018147 -26.863348 -2.791010
          CHANNELS 3 Zrotation Xrotation Yrotation
          JOINT WristRight
          {
            OFFSET 1.623119 -20.463684 -4.982468
            CHANNELS 3 Zrotation Xrotation Yrotation
            JOINT HandRight
            {
              OFFSET -1.001885 -7.358708 -1.719547
              CHANNELS 3 Zrotation Xrotation Yrotation
              JOINT HandTipRight
              {
                OFFSET -0.190783 -6.324771 -0.813515
                CHANNELS 3 Zrotation Xrotation Yrotation
                End Site
                {
                  OFFSET 0 0 0
                }
              }
              JOINT ThumbRight
              {
                OFFSET -3.566596 1.244484 -0.118602
                CHANNELS 3 Zrotation Xrotation Yrotation
                End Site
                {
                  OFFSET 0 0 0
                }
              }
            }
          }
        }
      }
    }
  }
  JOINT HipLeft
  {
    OFFSET -5.860012 0.426420 -2.001724
    CHANNELS 3 Zrotation Xrotation Yrotation
    JOINT KneeLeft
    {
      OFFSET -7.867867 -28.929752 3.096867
      CHANNELS 3 Zrotation Xrotation Yrotation
      JOINT AnkleLeft
      {
        OFFSET -2.699081 -41.273158 6.305264
        CHANNELS 3 Zrotation Xrotation Yrotation
        JOINT FootLeft
        {
          OFFSET -3.148731 -8.134817 -4.091491
          CHANNELS 3 Zrotation Xrotation Yrotation
          End Site
          {
            OFFSET 0 0 0
          }
        }
      }
    }
  }
  JOINT HipRight
  {
    OFFSET 5.273425 0.849030 -4.673466
    CHANNELS 3 Zrotation Xrotation Yrotation
    JOINT KneeRight
    {
      OFFSET 6.582933 -27.549684 1.557724
      CHANNELS 3 Zrotation Xrotation Yrotation
      JOINT AnkleRight
      {
        OFFSET 2.209263 -38.108127 7.897617
        CHANNELS 3 Zrotation Xrotation Yrotation
        JOINT FootRight
        {
          OFFSET -2.617904 -5.764804 -9.144966
          CHANNELS 3 Zrotation Xrotation Yrotation
          End Site
          {
            OFFSET 0 0 0
          }
        }
      }
    }
  }
}
MOTION
Frames: 13
Frame Time: 0.033333
33.132684 77.911307 376.838581 -0.000000 0.000000 13.494357 -0.000000 0.000000 -13.494357 -0.000000 0.000000 0.000000 -0.000000 0.000000 0.000000 0.000000 0.000000 0.000000 -0.000000 0.000000 0.000000 -0.000000 0.000000 0.000000 -0.000000 0.000000 0.000000 -0.000000 0.000000 0.000000 0.000000 0.000000 0.000000 0.000000 0.000000 0.000000 -0.000000 0.000000 0.000000 -0.000000 0.000000 0.000000 -0.000000 0.000000 0.000000 -0.000000 0.000000 0.000000 0.000000 0.000000 0.000000 0.000000 0.000000 0.000000 -0.000000 0.000000 -13.494357 -0.000000 0.000000 0.000000 -0.000000 0.000000 0.000000 0.000000 0.000000 0.000000 -0.000000 0.000000 -13.494357 -0.000000 0.000000 0.000000 -0.000000 0.000000 0.000000 0.000000 0.000000 0.000000
33.133932 77.914428 376.855881 0.023112 -0.012816 13.663366 -0.019430 0.017913 -13.663360 -0.000000 0.000000 0.000000 -0.000000 0.000000 0.000000 0.000000 0.000000 0.000000 -0.000000 0.000000 0.000000 -0.706348 -0.574537 0.201775 1.985631 2.446922 -0.527949 0.005306 -2.211756 0.102924 0.000000 0.000000 0.000000 0.000000 0.000000 0.000000 -0.000000 0.000000 0.000000 -0.000000 0.000000 0.000000 -1.611283 1.625866 0.177104 2.608089 -2.578273 -0.195144 0.000000 0.000000 0.000000 0.000000 0.000000 0.000000 -0.019430 0.017913 -13.663360 -0.000000 0.000000 0.000000 1.046186 5.888498 -2.798209 0.000000 0.000000 0.000000 -0.019430 0.017913 -13.663360 -0.000000 0.000000 0.000000 -0.693729 5.095345 -1.103111 0.000000 0.000000 0.000000
33.130593 77.913538 376.871240 0.043247 -0.028639 13.816656 -0.035156 0.038138 -13.816634 -0.000000 0.000000 0.000000 -0.000000 0.000000 0.000000 0.000000 0.000000 0.000000 -0.000000 0.000000 0.000000 -1.276967 -0.999539 0.354485 3.651333 4.390715 -1.015600 -0.218235 -3.818397 0.258100 0.000000 0.000000 0.000000 0.000000 0.000000 0.000000 -0.000000 0.000000 0.000000 -0.000000 0.000000 0.000000 -3.174055 3.131954 0.398116 4.880545 -4.644902 -0.284534 0.000000 0.000000 0.000000 0.000000 0.000000 0.000000 -0.035156 0.038138 -13.816634 0.202484 -0.944344 0.094252 1.700022 11.685097 -5.204717 0.000000 0.000000 0.000000 -0.035156 0.038138 -13.816634 -0.000000 0.000000 0.000000 -1.046912 8.318547 -1.828603 0.000000 0.000000 0.000000
33.122666 77.908638 376.884658 0.060404 -0.047467 13.954234 -0.047175 0.060632 -13.954184 -0.000000 0.000000 0.000000 -0.000000 0.000000 0.000000 0.000000 0.000000 0.000000 -0.000000 0.000000 0.000000 -1.710075 -1.271242 0.461078 5.001468 5.864015 -1.433694 -0.648726 -4.869446 0.426281 0.000000 0.000000 0.000000 0.000000 0.000000 0.000000 -0.000000 0.000000 0.000000 -0.957092 0.832167 0.305655 -3.685528 3.681628 0.292917 6.799098 -6.173432 -0.313568 0.000000 0.000000 0.000000 0.000000 0.000000 0.000000 -0.047175 0.060632 -13.954184 0.327780 -1.267582 0.136393 2.093512 15.866147 -6.976848 0.000000 0.000000 0.000000 -0.047175 0.060632 -13.954184 -0.000000 0.000000 0.000000 -1.162476 10.007148 -2.282252 0.000000 0.000000 0.000000
33.110152 77.899726 376.896136 0.074583 -0.069300 14.076097 -0.055489 0.085358 -14.076011 -0.000000 0.000000 0.000000 -0.000000 0.000000 0.000000 0.000000 0.000000 0.000000 -0.000000 0.000000 0.000000 -2.004516 -1.387328 0.523784 6.037172 6.891327 -1.760229 -1.277608 -5.394552 0.587675 0.000000 0.000000 0.000000 0.000000 0.000000 0.000000 -0.000000 0.000000 0.000000 -1.426817 1.137181 0.451132 -4.594852 4.588376 0.384685 8.346097 -7.148468 -0.320229 0.000000 0.000000 0.000000 0.000000 0.000000 0.000000 -0.055489 0.085358 -14.076011 0.468029 -1.479447 0.174001 2.043136 19.029387 -8.126392 0.000000 0.000000 0.000000 -0.055489 0.085358 -14.076011 -0.000000 0.000000 0.000000 -1.087094 10.344244 -2.514933 0.000000 0.000000 0.000000
33.093051 77.886805 376.905672 0.085782 -0.094136 14.182237 -0.060104 0.112284 -14.182108 -0.000000 0.000000 0.000000 -0.000000 0.000000 0.000000 0.000000 0.000000 0.000000 -0.000000 0.000000 0.000000 -2.159685 -1.346793 0.544006 6.757366 7.487821 -1.979291 -2.105616 -5.403899 0.737205 0.000000 0.000000 0.000000 0.000000 0.000000 0.000000 -0.000000 0.000000 0.000000 -1.978715 1.460587 0.621819 -5.303894 5.298801 0.452621 9.507733 -7.564423 -0.333004 0.000000 0.000000 0.000000 0.000000 0.000000 0.000000 -0.060104 0.112284 -14.182108 0.621936 -1.573525 0.206103 1.479536 21.256513 -8.627038 0.000000 0.000000 0.000000 0.321869 0.831647 -13.985269 -0.196825 -0.790340 -0.201343 -0.830047 9.366540 -2.539419 0.000000 0.000000 0.000000
33.073943 77.868416 376.917952 0.088103 -0.137831 14.355713 -0.051178 0.155372 -14.355538 -0.000000 0.000000 0.000000 -0.000000 0.000000 0.000000 0.000000 0.000000 0.000000 -0.000000 0.000000 0.000000 -2.054305 -0.963875 0.479178 7.033092 6.984428 -2.039655 -4.417758 -3.935832 1.032894 0.000000 0.000000 0.000000 0.000000 0.000000 0.000000 -0.174311 0.809163 0.230664 -2.605930 0.861651 0.581392 -5.199915 4.705359 0.442134 10.385538 -5.130231 -0.657344 0.000000 0.000000 0.000000 0.000000 0.000000 0.000000 -0.051178 0.155372 -14.355538 0.869817 -1.443105 0.237876 -0.570312 24.821740 -8.671047 0.000000 0.000000 0.000000 0.539920 1.283502 -14.050225 -0.299629 -1.237839 -0.315972 0.925215 2.301556 -2.461835 0.000000 0.000000 0.000000
33.044073 77.843571 376.923710 0.085605 -0.176694 14.457747 -0.038779 0.192471 -14.457549 -0.000000 0.000000 0.000000 0.743529 0.597936 0.128123 0.000000 0.000000 0.000000 -0.000000 0.000000 0.000000 -1.956752 -0.635404 0.421846 7.099710 7.191297 -1.987953 -5.200465 -4.275926 1.059741 0.000000 0.000000 0.000000 0.000000 0.000000 0.000000 -0.241964 0.923761 0.268354 -3.136239 0.347084 0.641008 -5.840949 6.216861 0.648923 10.550614 -6.531125 -0.566319 0.000000 0.000000 0.000000 0.000000 0.000000 0.000000 -0.038779 0.192471 -14.457549 1.023002 -1.188395 0.244371 -2.547918 26.175482 -7.945310 0.000000 0.000000 0.000000 0.832460 1.858283 -14.011519 -0.442297 -1.827055 -0.468676 1.782416 -3.542807 -1.232380 0.000000 0.000000 0.000000
33.017204 77.824866 376.907905 0.082205 -0.196470 14.471605 -0.030499 0.210779 -14.471408 -0.000000 0.000000 0.000000 0.801871 0.799049 0.169433 0.000000 0.000000 0.000000 -0.000000 0.000000 0.000000 -1.714206 -0.365788 0.346535 7.258693 8.032301 -1.998004 -7.250746 -3.222437 1.238307 0.000000 0.000000 0.000000 0.000000 0.000000 0.000000 -0.289656 1.025876 0.300627 -4.118680 0.712257 0.902688 -5.840720 5.061531 0.624748 10.105100 -5.961641 -0.882135 0.000000 0.000000 0.000000 0.000000 0.000000 0.000000 -0.030499 0.210779 -14.471408 1.203106 -1.043928 0.262850 -4.057323 22.206165 -5.866259 0.000000 0.000000 0.000000 1.107367 2.453640 -13.880295 -0.567291 -2.450036 -0.629704 3.110475 -9.839573 -0.221288 0.000000 0.000000 0.000000
33.004528 77.799435 376.888954 0.096451 -0.197205 14.422856 -0.044293 0.215013 -14.422607 -0.000000 0.000000 0.000000 0.827273 0.938045 0.197882 0.000000 0.000000 0.000000 -0.000000 0.000000 0.000000 -1.487245 -0.055125 0.267523 6.989428 8.692965 -1.826160 -9.291936 -0.627927 1.471775 0.000000 0.000000 0.000000 0.000000 0.000000 0.000000 -0.317871 0.988433 0.293955 -4.924909 1.601451 1.219768 -6.327597 5.431440 0.540396 9.559889 -6.545781 -0.843747 0.000000 0.000000 0.000000 0.000000 0.000000 0.000000 -0.044293 0.215013 -14.422607 1.212904 -0.852373 0.249955 -5.005579 20.423085 -4.762520 0.000000 0.000000 0.000000 1.147940 2.781031 -13.759581 -0.388379 -4.060739 -0.735824 3.811748 -12.500108 0.486461 0.000000 0.000000 0.000000
32.956516 77.784699 376.869864 0.125546 -0.168320 14.346832 -0.079923 0.194180 -14.346512 -0.000000 0.000000 0.000000 0.736146 0.988801 0.208445 0.000000 0.000000 0.000000 -0.000000 0.000000 0.000000 -1.347604 0.254772 0.202877 7.002415 8.190989 -1.802560 -10.437988 0.688815 1.740054 0.000000 0.000000 0.000000 0.000000 0.000000 0.000000 -0.424588 1.039234 0.319483 -5.480896 4.502132 1.734481 -6.890153 5.071046 -0.078974 9.350195 -4.430681 -0.566292 0.000000 0.000000 0.000000 0.000000 0.000000 0.000000 -0.079923 0.194180 -14.346512 1.131713 -0.724549 0.227362 -5.679333 23.880361 -5.359458 0.000000 0.000000 0.000000 1.203322 3.012337 -13.622872 -0.147773 -4.673851 -0.745223 3.721443 -13.273951 0.755582 0.000000 0.000000 0.000000
32.895017 77.792692 376.863239 0.178534 -0.132546 14.313440 -0.140223 0.172569 -14.313022 -0.000000 0.000000 0.000000 0.593613 1.046550 0.220660 0.000000 0.000000 0.000000 -0.000000 0.000000 0.000000 -1.218672 0.556745 0.140479 6.874474 6.903029 -1.753039 -10.347738 4.814354 2.267890 0.000000 0.000000 0.000000 0.000000 0.000000 0.000000 0.246561 1.098594 0.258636 -7.355847 8.718207 2.686890 -5.210194 5.048062 -1.504356 8.376686 -0.753634 0.252220 0.000000 0.000000 0.000000 0.000000 0.000000 0.000000 -0.140223 0.172569 -14.313022 0.937790 -0.499929 0.180030 -5.529837 23.706269 -5.328651 0.000000 0.000000 0.000000 1.079729 3.025645 -13.586992 0.112806 -4.746814 -0.693757 2.777916 -11.062147 0.748194 0.000000 0.000000 0.000000
32.785878 77.824064 376.873228 0.226067 -0.052504 14.302611 -0.206089 0.106724 -14.302316 -0.000000 0.000000 0.000000 0.421977 0.936198 0.198079 0.000000 0.000000 0.000000 -0.000000 0.000000 0.000000 -1.122741 0.794392 0.091929 5.702908 5.750544 -1.301085 -9.858407 9.079937 2.593945 0.000000 0.000000 0.000000 0.000000 0.000000 0.000000 1.123380 2.981316 0.629780 -9.984589 13.744911 3.566612 -2.111766 5.602689 -3.590660 6.270098 -0.737727 1.523630 0.000000 0.000000 0.000000 0.000000 0.000000 0.000000 -0.206089 0.106724 -14.302316 0.836211 -0.553703 0.167956 -5.092610 20.575189 -4.565997 0.000000 0.000000 0.000000 0.896678 2.731684 -13.632564 0.406889 -4.589284 -0.573073 3.485981 -12.964901 0.162985 0.000000 0.000000 0.000000
